<mxfile host="app.diagrams.net" modified="2024-03-14T07:09:06.039Z" agent="Mozilla/5.0 (Windows NT 10.0; Win64; x64) AppleWebKit/537.36 (KHTML, like Gecko) Chrome/122.0.0.0 Safari/537.36 Edg/122.0.0.0" etag="WVHnkW4YSZ2vSQBWyNrI" version="24.0.2" type="device">
  <diagram id="C5RBs43oDa-KdzZeNtuy" name="Page-1">
    <mxGraphModel dx="710" dy="1330" grid="1" gridSize="10" guides="1" tooltips="1" connect="1" arrows="1" fold="1" page="1" pageScale="1" pageWidth="827" pageHeight="1169" math="0" shadow="0">
      <root>
        <mxCell id="WIyWlLk6GJQsqaUBKTNV-0" />
        <mxCell id="WIyWlLk6GJQsqaUBKTNV-1" parent="WIyWlLk6GJQsqaUBKTNV-0" />
        <mxCell id="tDoQrd8eLbQG9WpcQi1a-4" style="edgeStyle=orthogonalEdgeStyle;rounded=0;orthogonalLoop=1;jettySize=auto;html=1;" edge="1" parent="WIyWlLk6GJQsqaUBKTNV-1" source="tDoQrd8eLbQG9WpcQi1a-0" target="tDoQrd8eLbQG9WpcQi1a-3">
          <mxGeometry relative="1" as="geometry" />
        </mxCell>
        <mxCell id="tDoQrd8eLbQG9WpcQi1a-0" value="Start" style="ellipse;whiteSpace=wrap;html=1;" vertex="1" parent="WIyWlLk6GJQsqaUBKTNV-1">
          <mxGeometry x="210" y="40" width="120" height="80" as="geometry" />
        </mxCell>
        <mxCell id="tDoQrd8eLbQG9WpcQi1a-6" style="edgeStyle=orthogonalEdgeStyle;rounded=0;orthogonalLoop=1;jettySize=auto;html=1;" edge="1" parent="WIyWlLk6GJQsqaUBKTNV-1" source="tDoQrd8eLbQG9WpcQi1a-3" target="tDoQrd8eLbQG9WpcQi1a-5">
          <mxGeometry relative="1" as="geometry" />
        </mxCell>
        <mxCell id="tDoQrd8eLbQG9WpcQi1a-3" value="Input N" style="shape=parallelogram;perimeter=parallelogramPerimeter;whiteSpace=wrap;html=1;fixedSize=1;" vertex="1" parent="WIyWlLk6GJQsqaUBKTNV-1">
          <mxGeometry x="210" y="160" width="120" height="60" as="geometry" />
        </mxCell>
        <mxCell id="tDoQrd8eLbQG9WpcQi1a-8" style="edgeStyle=orthogonalEdgeStyle;rounded=0;orthogonalLoop=1;jettySize=auto;html=1;" edge="1" parent="WIyWlLk6GJQsqaUBKTNV-1" source="tDoQrd8eLbQG9WpcQi1a-5" target="tDoQrd8eLbQG9WpcQi1a-7">
          <mxGeometry relative="1" as="geometry" />
        </mxCell>
        <mxCell id="tDoQrd8eLbQG9WpcQi1a-5" value="inisialisasi i" style="rounded=0;whiteSpace=wrap;html=1;" vertex="1" parent="WIyWlLk6GJQsqaUBKTNV-1">
          <mxGeometry x="210" y="260" width="120" height="60" as="geometry" />
        </mxCell>
        <mxCell id="tDoQrd8eLbQG9WpcQi1a-10" style="edgeStyle=orthogonalEdgeStyle;rounded=0;orthogonalLoop=1;jettySize=auto;html=1;entryX=0.5;entryY=0;entryDx=0;entryDy=0;" edge="1" parent="WIyWlLk6GJQsqaUBKTNV-1" source="tDoQrd8eLbQG9WpcQi1a-7" target="tDoQrd8eLbQG9WpcQi1a-9">
          <mxGeometry relative="1" as="geometry" />
        </mxCell>
        <mxCell id="tDoQrd8eLbQG9WpcQi1a-7" value="" style="ellipse;whiteSpace=wrap;html=1;aspect=fixed;" vertex="1" parent="WIyWlLk6GJQsqaUBKTNV-1">
          <mxGeometry x="255" y="340" width="30" height="30" as="geometry" />
        </mxCell>
        <mxCell id="tDoQrd8eLbQG9WpcQi1a-12" style="edgeStyle=orthogonalEdgeStyle;rounded=0;orthogonalLoop=1;jettySize=auto;html=1;" edge="1" parent="WIyWlLk6GJQsqaUBKTNV-1" source="tDoQrd8eLbQG9WpcQi1a-9" target="tDoQrd8eLbQG9WpcQi1a-11">
          <mxGeometry relative="1" as="geometry" />
        </mxCell>
        <mxCell id="tDoQrd8eLbQG9WpcQi1a-14" value="Ya" style="edgeLabel;html=1;align=center;verticalAlign=middle;resizable=0;points=[];" vertex="1" connectable="0" parent="tDoQrd8eLbQG9WpcQi1a-12">
          <mxGeometry x="-0.2" y="2" relative="1" as="geometry">
            <mxPoint as="offset" />
          </mxGeometry>
        </mxCell>
        <mxCell id="tDoQrd8eLbQG9WpcQi1a-9" value="i &amp;lt;= N" style="rhombus;whiteSpace=wrap;html=1;" vertex="1" parent="WIyWlLk6GJQsqaUBKTNV-1">
          <mxGeometry x="230" y="410" width="80" height="80" as="geometry" />
        </mxCell>
        <mxCell id="tDoQrd8eLbQG9WpcQi1a-15" style="edgeStyle=orthogonalEdgeStyle;rounded=0;orthogonalLoop=1;jettySize=auto;html=1;entryX=0.5;entryY=0;entryDx=0;entryDy=0;" edge="1" parent="WIyWlLk6GJQsqaUBKTNV-1" source="tDoQrd8eLbQG9WpcQi1a-11" target="tDoQrd8eLbQG9WpcQi1a-13">
          <mxGeometry relative="1" as="geometry" />
        </mxCell>
        <mxCell id="tDoQrd8eLbQG9WpcQi1a-16" value="Ya" style="edgeLabel;html=1;align=center;verticalAlign=middle;resizable=0;points=[];" vertex="1" connectable="0" parent="tDoQrd8eLbQG9WpcQi1a-15">
          <mxGeometry x="-0.1273" y="-2" relative="1" as="geometry">
            <mxPoint as="offset" />
          </mxGeometry>
        </mxCell>
        <mxCell id="tDoQrd8eLbQG9WpcQi1a-26" style="edgeStyle=orthogonalEdgeStyle;rounded=0;orthogonalLoop=1;jettySize=auto;html=1;entryX=0;entryY=0.5;entryDx=0;entryDy=0;" edge="1" parent="WIyWlLk6GJQsqaUBKTNV-1" source="tDoQrd8eLbQG9WpcQi1a-11" target="tDoQrd8eLbQG9WpcQi1a-25">
          <mxGeometry relative="1" as="geometry" />
        </mxCell>
        <mxCell id="tDoQrd8eLbQG9WpcQi1a-11" value="i^2 = N" style="rhombus;whiteSpace=wrap;html=1;" vertex="1" parent="WIyWlLk6GJQsqaUBKTNV-1">
          <mxGeometry x="230" y="545" width="80" height="80" as="geometry" />
        </mxCell>
        <mxCell id="tDoQrd8eLbQG9WpcQi1a-19" style="edgeStyle=orthogonalEdgeStyle;rounded=0;orthogonalLoop=1;jettySize=auto;html=1;entryX=0.5;entryY=0;entryDx=0;entryDy=0;" edge="1" parent="WIyWlLk6GJQsqaUBKTNV-1" source="tDoQrd8eLbQG9WpcQi1a-13" target="tDoQrd8eLbQG9WpcQi1a-18">
          <mxGeometry relative="1" as="geometry" />
        </mxCell>
        <mxCell id="tDoQrd8eLbQG9WpcQi1a-13" value="Print i" style="shape=parallelogram;perimeter=parallelogramPerimeter;whiteSpace=wrap;html=1;fixedSize=1;" vertex="1" parent="WIyWlLk6GJQsqaUBKTNV-1">
          <mxGeometry x="210" y="680" width="120" height="60" as="geometry" />
        </mxCell>
        <mxCell id="tDoQrd8eLbQG9WpcQi1a-21" style="edgeStyle=orthogonalEdgeStyle;rounded=0;orthogonalLoop=1;jettySize=auto;html=1;" edge="1" parent="WIyWlLk6GJQsqaUBKTNV-1" source="tDoQrd8eLbQG9WpcQi1a-18" target="tDoQrd8eLbQG9WpcQi1a-20">
          <mxGeometry relative="1" as="geometry" />
        </mxCell>
        <mxCell id="tDoQrd8eLbQG9WpcQi1a-18" value="break" style="rounded=0;whiteSpace=wrap;html=1;" vertex="1" parent="WIyWlLk6GJQsqaUBKTNV-1">
          <mxGeometry x="210" y="770" width="120" height="60" as="geometry" />
        </mxCell>
        <mxCell id="tDoQrd8eLbQG9WpcQi1a-23" style="edgeStyle=orthogonalEdgeStyle;rounded=0;orthogonalLoop=1;jettySize=auto;html=1;" edge="1" parent="WIyWlLk6GJQsqaUBKTNV-1" source="tDoQrd8eLbQG9WpcQi1a-20" target="tDoQrd8eLbQG9WpcQi1a-22">
          <mxGeometry relative="1" as="geometry" />
        </mxCell>
        <mxCell id="tDoQrd8eLbQG9WpcQi1a-20" value="" style="ellipse;whiteSpace=wrap;html=1;aspect=fixed;" vertex="1" parent="WIyWlLk6GJQsqaUBKTNV-1">
          <mxGeometry x="255" y="850" width="30" height="30" as="geometry" />
        </mxCell>
        <mxCell id="tDoQrd8eLbQG9WpcQi1a-22" value="End" style="ellipse;whiteSpace=wrap;html=1;" vertex="1" parent="WIyWlLk6GJQsqaUBKTNV-1">
          <mxGeometry x="210" y="940" width="120" height="80" as="geometry" />
        </mxCell>
        <mxCell id="tDoQrd8eLbQG9WpcQi1a-27" style="edgeStyle=orthogonalEdgeStyle;rounded=0;orthogonalLoop=1;jettySize=auto;html=1;entryX=1;entryY=0.5;entryDx=0;entryDy=0;" edge="1" parent="WIyWlLk6GJQsqaUBKTNV-1" source="tDoQrd8eLbQG9WpcQi1a-25" target="tDoQrd8eLbQG9WpcQi1a-7">
          <mxGeometry relative="1" as="geometry">
            <Array as="points">
              <mxPoint x="540" y="585" />
              <mxPoint x="540" y="355" />
            </Array>
          </mxGeometry>
        </mxCell>
        <mxCell id="tDoQrd8eLbQG9WpcQi1a-25" value="i++" style="rounded=0;whiteSpace=wrap;html=1;" vertex="1" parent="WIyWlLk6GJQsqaUBKTNV-1">
          <mxGeometry x="380" y="555" width="120" height="60" as="geometry" />
        </mxCell>
        <mxCell id="tDoQrd8eLbQG9WpcQi1a-28" value="" style="rounded=0;whiteSpace=wrap;html=1;fillColor=none;" vertex="1" parent="WIyWlLk6GJQsqaUBKTNV-1">
          <mxGeometry x="100" y="20" width="520" height="1030" as="geometry" />
        </mxCell>
      </root>
    </mxGraphModel>
  </diagram>
</mxfile>
